<svg xmlns="http://www.w3.org/2000/svg" viewBox="0 0 64 64">
  <rect width="64" height="64" rx="14" fill="#f6f8fb"/>
  <rect x="5" y="5" width="54" height="54" rx="11" fill="#007a53"/>
  <path d="M18 25.5c0-5.4 4.1-9.4 9.7-9.4 3.3 0 6 1.2 7.8 3.5l-4.1 3.7c-.9-1.2-2.1-1.9-3.6-1.9-2.5 0-4.2 1.7-4.2 4.1 0 2.5 1.7 4.2 4.2 4.2 1.5 0 2.7-.7 3.6-1.9l4.1 3.7c-1.8 2.3-4.5 3.5-7.8 3.5-5.6 0-9.7-4-9.7-9.5Z" fill="#ffffff"/>
  <path d="M36.5 16.7h9.1c4 0 6.4 1.9 6.4 4.8 0 1.7-.8 3-2.2 3.8 1.9.8 3 2.3 3 4.5 0 3.3-2.8 5.2-7.1 5.2h-9.2V16.7Zm8.1 7c1.2 0 1.8-.5 1.8-1.4s-.6-1.4-1.8-1.4h-2.3v2.8h2.3Zm.6 7.1c1.3 0 2-.5 2-1.5s-.7-1.5-2-1.5h-2.9v3h2.9Z" fill="#dff8ff"/>
  <path d="M12 43h40v5H12z" fill="#ffffff" opacity=".85"/>
</svg>
